<svg width="169" height="34" viewBox="0 0 169 34" fill="none" xmlns="http://www.w3.org/2000/svg">
<path d="M10.76 2.96L7.28 25.6H2.98023e-08L2.68 4.48L1.52 2.96H10.76Z" fill="#00C5DC"/>
<path d="M36.6456 8.72L34.3256 25.6H26.6456L28.5656 12.56H23.9656L22.0456 25.6H14.3656L16.6856 9.84L15.5256 8.72H36.6456ZM51.7544 21.76L52.1144 19.08H40.5944L42.1544 8.72H60.5544L59.7944 13.68H53.1544L53.2744 12.56H48.6744L48.2744 15.24H59.4344L58.6344 22.92C58.4477 23.6933 58.021 24.3333 57.3544 24.84C56.6877 25.3467 55.9677 25.6 55.1944 25.6H39.8344L40.5944 20.24L41.7544 21.76H51.7544ZM73.7406 7.56H66.4206L66.8206 2.96H74.5006L73.7406 7.56ZM73.7406 8.72L71.4206 25.6H63.7406L66.0606 9.84L64.9006 8.72H73.7406ZM90.3659 30.16L91.1259 25.6H78.8459L81.1259 8.72H101.126L98.0459 31.32C97.9393 32.0933 97.5926 32.7333 97.0059 33.24C96.4193 33.7467 95.7393 34 94.9659 34H77.6859L78.4459 28.64L80.0059 30.16H90.3659ZM88.4459 12.56L87.0059 21.72H91.5259L93.0459 12.56H88.4459ZM115.447 0.639999L114.327 8.72H126.607L124.287 25.6H116.607L118.527 12.56H113.927L112.007 25.6H104.327L107.767 1.8L107.007 0.639999H115.447ZM133.635 6.4L132.875 5.24H141.315L140.795 8.72H145.555L144.755 12.56H140.315L138.995 21.76H142.835L142.075 25.6H133.635C132.862 25.6 132.235 25.3467 131.755 24.84C131.275 24.3333 131.129 23.6933 131.315 22.92L132.875 12.56H129.795L130.195 8.72H133.315L133.635 6.4ZM159.879 21.76L160.239 19.08H148.719L150.279 8.72H168.679L167.919 13.68H161.279L161.399 12.56H156.799L156.399 15.24H167.559L166.759 22.92C166.573 23.6933 166.146 24.3333 165.479 24.84C164.813 25.3467 164.093 25.6 163.319 25.6H147.959L148.719 20.24L149.879 21.76H159.879Z" fill="#333333"/>
</svg>
