<svg width="104" height="24" viewBox="0 0 104 24" fill="none" xmlns="http://www.w3.org/2000/svg">
<path d="M11.56 0.959998L19.6 15.16L21.52 0.959998H28.08L25 23.6H17.32L9.64 9.76L7.72 23.6H0.8L3.88 2.48L2.32 0.959998H11.56Z" fill="#1A62F5"/>
<path d="M51.8584 16.68H39.5784L39.1784 19.76H49.9384L51.8584 18.24L50.6984 23.6H33.8184C33.0451 23.6 32.4584 23.3467 32.0584 22.84C31.6851 22.3333 31.4984 21.6933 31.4984 20.92L33.4184 6.72H53.3784L51.8584 16.68ZM40.6984 10.56L40.3384 12.84H44.9384L45.3384 10.56H40.6984ZM66.1366 6.72H70.7366L71.5366 15.16L74.5766 6.72H80.7366L74.5766 23.6H68.4566L67.2966 15.16L63.8566 23.6H57.6966L56.5366 7.84L55.7766 6.72H62.2966L63.0566 15.16L66.1366 6.72ZM95.0591 19.76L95.4191 17.08H83.8991L85.4591 6.72H103.859L103.099 11.68H96.4591L96.5791 10.56H91.9791L91.5791 13.24H102.739L101.939 20.92C101.752 21.6933 101.326 22.3333 100.659 22.84C99.9924 23.3467 99.2724 23.6 98.4991 23.6H83.1391L83.8991 18.24L85.0591 19.76H95.0591Z" fill="#333333"/>
</svg>
