<svg width="171" height="26" viewBox="0 0 171 26" fill="none" xmlns="http://www.w3.org/2000/svg">
<path d="M27.28 2.96L25.76 15.24C25.5467 16.0133 25.12 16.6533 24.48 17.16C23.8667 17.6667 23.2667 17.92 22.68 17.92H9.24L8.08 25.6H0.8L3.48 4.08L2.32 2.96H27.28ZM10.8 6.8L10 14.08H18.08L19.24 6.8H10.8Z" fill="#7B6DFF"/>
<path d="M39.6828 8.72L38.9228 14.08L44.3228 8.72H52.0028L38.9228 20.24L38.1628 25.6H30.4828L32.7228 9.84L31.9228 8.72H39.6828ZM72.2219 8.72C72.9952 8.72 73.5685 9.04 73.9419 9.68C74.3419 10.2933 74.5419 10.9867 74.5419 11.76L72.6219 25.6H55.3419C54.5685 25.6 53.9819 25.3467 53.5819 24.84C53.2085 24.3333 53.0219 23.6933 53.0219 22.92L54.9419 8.72H72.2219ZM62.2219 12.56L60.7019 21.76H65.3019L66.8619 12.56H62.2219ZM93.1084 0.639999H100.788L97.3484 25.6H80.0684C79.2951 25.6 78.7084 25.3467 78.3084 24.84C77.9351 24.3333 77.7484 23.6933 77.7484 22.92L79.6684 8.72H91.9484L93.1084 0.639999ZM86.7484 12.56L85.2684 21.76H90.1484L91.5884 12.56H86.7484ZM113.764 8.72L112.004 20.72L116.804 20.24L118.364 9.84L117.204 8.72H126.044L123.724 25.6H116.044L116.284 24.08L103.764 25.6L106.084 9.84L104.924 8.72H113.764ZM151.113 12.56H138.833L137.313 21.76H148.033L149.953 20.24L149.193 25.6H129.233L131.913 8.72H151.513L151.113 12.56ZM158.542 6.4L157.782 5.24H166.222L165.702 8.72H170.462L169.662 12.56H165.222L163.902 21.76H167.742L166.982 25.6H158.542C157.768 25.6 157.142 25.3467 156.662 24.84C156.182 24.3333 156.035 23.6933 156.222 22.92L157.782 12.56H154.702L155.102 8.72H158.222L158.542 6.4Z" fill="#333333"/>
</svg>
