<svg width="192" height="34" viewBox="0 0 192 34" fill="none" xmlns="http://www.w3.org/2000/svg">
<path d="M6.56 25.6L9.24 6.8H0.8L1.2 2.96H25.76L25 6.8H16.92L14.24 25.6H6.56Z" fill="#21B351"/>
<path d="M38.3547 8.72L37.5947 14.08L42.9947 8.72H50.6747L37.5947 20.24L36.8347 25.6H29.1547L31.3947 9.84L30.5947 8.72H38.3547ZM72.0538 18.68H59.7738L59.3738 21.76H70.1338L72.0538 20.24L70.8938 25.6H54.0138C53.2404 25.6 52.6538 25.3467 52.2538 24.84C51.8804 24.3333 51.6938 23.6933 51.6938 22.92L53.6138 8.72H73.5738L72.0538 18.68ZM60.8938 12.56L60.5338 14.84H65.1338L65.5338 12.56H60.8938ZM99.0519 8.72L96.7319 25.6H89.0519L90.9719 12.56H86.3719L84.4519 25.6H76.7719L79.0919 9.84L77.9319 8.72H99.0519ZM117.601 0.639999H125.281L121.841 25.6H104.561C103.787 25.6 103.201 25.3467 102.801 24.84C102.427 24.3333 102.241 23.6933 102.241 22.92L104.161 8.72H116.441L117.601 0.639999ZM111.241 12.56L109.761 21.76H114.641L116.081 12.56H111.241ZM138.256 7.56H130.936L131.336 2.96H139.016L138.256 7.56ZM138.256 8.72L135.936 25.6H128.256L130.576 9.84L129.416 8.72H138.256ZM164.482 8.72L162.162 25.6H154.482L156.402 12.56H151.802L149.882 25.6H142.202L144.522 9.84L143.362 8.72H164.482ZM180.35 30.16L181.11 25.6H168.83L171.11 8.72H191.11L188.03 31.32C187.924 32.0933 187.577 32.7333 186.99 33.24C186.404 33.7467 185.724 34 184.95 34H167.67L168.43 28.64L169.99 30.16H180.35ZM178.43 12.56L176.99 21.72H181.51L183.03 12.56H178.43Z" fill="#333333"/>
</svg>
